<svg width="178" height="23" viewBox="0 0 178 23" fill="none" xmlns="http://www.w3.org/2000/svg">
<path d="M70.2474 19.7441H66.6466L63.4612 10.3662H66.3894L67.3786 14.0462C67.6754 15.1937 67.9919 16.2818 68.2689 17.37H68.6646C68.9416 16.2818 69.2581 15.1739 69.5747 14.0462L70.5639 10.3662H73.4129L70.2474 19.7441ZM77.1689 17.8844C78.3956 17.8844 79.1672 17.1523 79.1672 16.1433V15.7674H77.2283C76.3578 15.7674 75.8038 16.1631 75.8038 16.816C75.8038 17.4095 76.1401 17.8844 77.1689 17.8844ZM79.3057 19.7441V17.5085H79.0683C78.5934 18.9923 77.6042 19.942 76.0016 19.942C74.4189 19.942 73.2516 19.1308 73.2516 17.2908C73.2516 15.6091 74.2408 14.4418 76.7139 14.4418H79.1672V13.7889C79.1672 12.8195 78.7517 12.2655 77.7229 12.2655C76.8326 12.2655 76.3182 12.7008 76.1401 13.6109L73.6077 13.0371C73.9242 11.3356 75.23 10.1288 77.8218 10.1288C80.6708 10.1288 81.8381 11.4346 81.8381 13.7889V19.7441H79.3057ZM86.4466 7.04237V19.7441H83.7558V7.04237H86.4466ZM91.2212 9.04062H88.4117V7.10172H91.2212V9.04062ZM91.1618 19.7441H88.4711V10.3662H91.1618V19.7441ZM97.2206 17.647C98.3483 17.647 99.1199 16.816 99.1199 15.5102V14.7782C99.1199 13.413 98.3879 12.5425 97.2008 12.5425C95.9148 12.5425 95.3212 13.3735 95.3212 15.1343C95.3212 16.816 95.895 17.647 97.2206 17.647ZM99.1199 19.7441V17.2908H98.9616C98.4868 18.933 97.458 20.0211 95.895 20.0211C93.8769 20.0211 92.6899 18.2999 92.6899 15.1343C92.6899 11.8698 93.8769 10.109 95.9346 10.109C97.4382 10.109 98.4472 11.0982 98.9418 12.7404H99.1199V7.04237H101.811V19.7441H99.1199ZM107.116 17.8844C108.343 17.8844 109.115 17.1523 109.115 16.1433V15.7674H107.176C106.305 15.7674 105.751 16.1631 105.751 16.816C105.751 17.4095 106.088 17.8844 107.116 17.8844ZM109.253 19.7441V17.5085H109.016C108.541 18.9923 107.552 19.942 105.949 19.942C104.366 19.942 103.199 19.1308 103.199 17.2908C103.199 15.6091 104.188 14.4418 106.661 14.4418H109.115V13.7889C109.115 12.8195 108.699 12.2655 107.67 12.2655C106.78 12.2655 106.266 12.7008 106.088 13.6109L103.555 13.0371C103.872 11.3356 105.178 10.1288 107.769 10.1288C110.618 10.1288 111.786 11.4346 111.786 13.7889V19.7441H109.253ZM114.158 16.7962V12.5029H113.011V10.3662H114.158V7.95247H116.849V10.3662H119.322V12.5029H116.849V16.361C116.849 17.1128 117.126 17.4887 117.937 17.4887C118.353 17.4887 118.808 17.37 119.164 17.2513L119.461 19.665C118.748 19.8826 118.274 20.0211 117.245 20.0211C115.069 20.0211 114.158 18.5768 114.158 16.7962ZM125.205 20.0211C122.158 20.0211 120.358 18.1416 120.358 15.0552C120.358 11.9292 122.217 10.109 125.205 10.109C128.133 10.109 130.012 11.9292 130.012 15.0552C130.012 18.1416 128.192 20.0211 125.205 20.0211ZM125.185 12.3645C123.701 12.3645 123.048 13.3339 123.048 15.0354C123.048 16.7369 123.662 17.7261 125.185 17.7261C126.689 17.7261 127.322 16.7369 127.322 15.0354C127.322 13.3339 126.669 12.3645 125.185 12.3645ZM134.149 19.7441H131.458V10.3662H134.011V13.413H134.228C134.822 10.8015 135.613 10.2673 136.84 10.2673H137.117V13.3537H136.563C134.683 13.3537 134.149 13.9077 134.149 15.5696V19.7441ZM136.336 16.9149H139.264V19.7441H136.336V16.9149ZM146.867 14.1846C146.629 13.1756 146.194 12.4634 145.007 12.4634C143.76 12.4634 142.989 13.2548 142.989 15.0354C142.989 16.6973 143.662 17.6667 145.046 17.6667C146.253 17.6667 146.708 16.8556 146.906 15.8861L149.379 16.4797C149.063 18.656 147.737 20.0211 145.066 20.0211C142.099 20.0211 140.239 18.379 140.239 15.1739C140.239 11.9885 142.059 10.109 145.046 10.109C147.836 10.109 149.023 11.4346 149.36 13.7098L146.867 14.1846ZM155.268 20.0211C152.221 20.0211 150.421 18.1416 150.421 15.0552C150.421 11.9292 152.281 10.109 155.268 10.109C158.196 10.109 160.076 11.9292 160.076 15.0552C160.076 18.1416 158.256 20.0211 155.268 20.0211ZM155.248 12.3645C153.765 12.3645 153.112 13.3339 153.112 15.0354C153.112 16.7369 153.725 17.7261 155.248 17.7261C156.752 17.7261 157.385 16.7369 157.385 15.0354C157.385 13.3339 156.732 12.3645 155.248 12.3645ZM164.213 14.521V19.7441H161.522V10.3662H164.153V12.8789H164.351C164.885 11.0587 166.013 10.109 167.497 10.109C169.159 10.109 169.97 11.1576 170.089 12.9184H170.306C170.821 11.0784 171.889 10.109 173.432 10.109C175.272 10.109 176.202 11.3554 176.202 13.3933V19.7441H173.492V14.1451C173.492 13.1954 173.056 12.5425 172.067 12.5425C170.92 12.5425 170.207 13.3537 170.207 14.521V19.7441H167.517V14.1451C167.517 13.1954 167.062 12.5425 166.092 12.5425C164.945 12.5425 164.213 13.3537 164.213 14.521Z" fill="white"/>
<rect y="5.75879" width="15.5362" height="15.5362" rx="1.39826" fill="#1A1A40"/>
<rect x="18.4844" y="5.75879" width="15.5362" height="15.5362" rx="1.39826" fill="#28C2EC"/>
<rect x="36.9766" y="5.75879" width="15.5362" height="15.5362" rx="1.39826" fill="#EC5228"/>
</svg>
